<svg xmlns="http://www.w3.org/2000/svg" viewBox="0 0 411.52 120.53"><defs><style>.cls-1{fill:#009fe3;}.cls-2{fill:#1226aa;}.cls-3{fill:#ff671d;}.cls-4{fill:#e65300;}.cls-5{fill:#0a1f8f;}.cls-6{fill:#323e48;}</style></defs><title>Varlık 1</title><g id="katman_2" data-name="katman 2"><g id="katman_1-2" data-name="katman 1"><path class="cls-1" d="M7.91,71.2A.81.81,0,0,0,7.43,71c.17.17.34.26.48.16"/><path class="cls-1" d="M7.52,70.35l-.42-.09L7,70.41c.08.12.16.25.25.36a.91.91,0,0,0,.32-.42"/><path class="cls-1" d="M6.82,70.21l0,.09.13,0-.18,0"/><path class="cls-1" d="M29.87,60.19c.24-.31.67-.85,1-.81v-.46c-.36.2-.72.4-1.08.58a1.13,1.13,0,0,0,.08.69"/><path class="cls-2" d="M5.82,53.58l.11,11.34c.5-.07,1-.15,1-.67.53.36.06.24-.52.79l.55.24c-.21.06-.39,0-.61.13.73.36,1.32-.25,1.66-.56.28.12-.12.79.61.54,1-.31-.29-.72.33-.91l.52.47c.75-.52,1.4-.24,2.09-.27a.46.46,0,0,0,.24-.2h0l0-.06c0-.17-.19-.31.2-.37l-.2.37a.13.13,0,0,1,0,.06c.76.14,1.42-.75,2-.68-.1.13.37.27.47.39l.9-.51c-.4.22-.32.52-.35.82.3-.08.41-.27.62-.35-.11.13-.22.26,0,.36.31-.22.61-.45.91-.7a.54.54,0,0,0-.29,0c.25-.06.76-.38,1.17-.22,0,.13-.1.26-.11.38-.38-.25-.49.07-.59.33.69-.22.19,0,.57.17.49-.13.61-.57.42-.79a1.5,1.5,0,0,0,1.27-.41v.43c.17-.08.33-.18.49-.27l-.3.61c1.07,0,0-.74,1.16-.82l.1.35c.4-.25.37-.88.82-.55.35-.32-.84-.3.1-.64a1.7,1.7,0,0,0,.91.14c.25-.26-.36-.34-.54-.23,1.37-.63,1.27.9,2.4,0-.52-.1.14-.78-.89-.43.41-.37,1.14.19,1.51-.38l-.17.56c.19-.06.34-.3.41-.39l.09.35c.4-.83,1.28-.16,1.34-1.07,0,.7.45-.21.78-.1-.31.67-1.47.57-1.31,1.16.3.08.41-.28.71-.2.12-.14.2-.19.05,0h-.05a1.37,1.37,0,0,0-.33.52c.94,0,1.12-.83,1.53-1.18l-.78.49c-.16-.58.33-.26.39-.8.54.12.67-.45,1.09-.42-.09,0-.07.09-.16.13.9-.4,1.55.33,1.93.17s.9-.73.54-.83c.21-.29-1.1.75-.94-.2.75.45.87-.38,1.63-.73v-1a.73.73,0,0,1,.72-.73.71.71,0,0,1,.73.71v.86l.21.11c.33-.94-.13-.57.65-1.47-.2.39.62.09.48.42a1.26,1.26,0,0,0,.59-.68v.06c.86-.8,1-.25,1.66-1.15L36.05,56A11.87,11.87,0,0,1,37.9,54v-.76h.79a6.8,6.8,0,0,0,.5-.59l-.45.24c.17,0,.48-.84.95-1,0,0,.05-.06.08,0l-.08,0c0,.07-.09.23-.16.28a.6.6,0,0,0,.73,0l-.13-.3.19,0v-.28c-.08,0-.13-.09,0-.23v-.06H38.75l-.1-10.64,1.57,0,0-1.91-4.09,0,0-4.71h.62v-.54l-4.08,0-2.85-8,0-4.34H28.18L21.35,0,14.93,21.4H13.4l0,4.35-2.7,8.07-4.08,0v.53h.62l0,4.71-4.09,0,0,1.91H4.83l.1,10.64-1.57,0,0,1.91,1.57,0M32.73,38a1.41,1.41,0,0,1,2.81,0v.88l-2.82,0Zm-2.15,7.52a2.73,2.73,0,0,1,5.46,0l.06,5.93-5.46,0Zm-11,14.57-2.06,0v-.39h.31l0-1.68a.73.73,0,0,1,1.45,0l0,1.68h.31ZM26.29,60l-2.06,0v-.4h.3V58a.71.71,0,0,1,.71-.73A.72.72,0,0,1,26,58l0,1.68h.31Zm.23-22a1.41,1.41,0,1,1,2.81,0v.87l-2.81,0ZM25.6,43a2.66,2.66,0,0,1,2.76,2.56l.05,5.93-5.46,0-.06-5.93A2.66,2.66,0,0,1,25.6,43M20.3,38.1a1.41,1.41,0,1,1,2.82,0V39l-2.82,0Zm.37,7.58.06,5.85-5.46,0-.06-5.85a2.73,2.73,0,0,1,5.46,0m-6.58-7.52a1.41,1.41,0,0,1,1.4-1.42,1.4,1.4,0,0,1,1.42,1.39V39L14.1,39Zm-1.16,22-2.06,0v-.39h.31l0-1.68a.74.74,0,0,1,.72-.74.73.73,0,0,1,.73.72v1.68h.32Zm-5-21.92a1.42,1.42,0,0,1,2.83,0v.88l-2.83,0Zm-.35,7.51a2.66,2.66,0,0,1,2.7-2.62A2.67,2.67,0,0,1,13,45.68l.06,5.92-5.47.06Zm.76,18.45c.11.55-.2,0-.61.13.2,0,.41-.13.61-.13"/><path class="cls-3" d="M7.52,70.35l-.22,0-.11,0-.09,0L7,70.41c.08.12.16.25.25.36a.91.91,0,0,0,.32-.42"/><path class="cls-3" d="M6.82,70.21l0,.09.13,0-.18,0"/><path class="cls-3" d="M37,68.25c.26-.33.74-.93,1.07-.79-.05-.14-.11-.27-.16-.42l-.26.13c-.24.14-.48.27-.73.39a1.31,1.31,0,0,0,.08.69"/><path class="cls-3" d="M38.14,67.59c-.28.35-.8.74-.71,1-.63-.28.63-.5-.07-.64-.26.14-.29.36-.37.5.07-.29-.4-.21-.53-.29-.86.38-1.45.39-2.39.72,0,0,.07,0,0,0h0l0,0-.27.1h0l-.29.11c-.21.4-.31.88-.13,1-.55.21-.65,0-1.08.28.91.22-.18,0-.11.48-.47.21-.24-.18-.5-.23-.06.07-.21.29-.18.43a.61.61,0,0,0,.33.1c-.23,0-.32,0-.33-.1-.36-.25.12-.93-.06-1.32l-.73.2.05.18-.14,0,0-.2-.71.19a4,4,0,0,0,.76,1.66c0,.3-.56-.2-.78-.18-.75-.33-.89.6-1.47.53.12-.11.23-.24.35-.36-.11-.09-.86.21-1,.4,0-.16.24-.93,0-1.09-.95.08-1.7,1.17-1.57,1.65.47-.24.93-.52,1.39-.77.13.41-1,.6-.84,1.1-.47,0-.94,0-1.4,0,.17,0,.68-.23.44-.43-.58.1-.31,0-.73-.18a10.1,10.1,0,0,0,1.08-1.39l.15-.25-1.13.16c-.31.58-.53,1.19-.64,1.44-.54,0-.44-1-.34-1.16-1,0-.89,1.36-1.95,1.32l.41.17c-.24.11-1.16,0-1.05.13-.22-.23-.43-.79-.21-1l-.89.89c.13-.1,0-.82.07-1-.36,0-.61.86-.37,1-.74-.51-.55-.23-1.14-.85-.21.06,0,.78.18.86a1.29,1.29,0,0,1-1,0,0,0,0,0,1,0,0v0c-.25-.09-.43-.15-.78.25l.54-1.2.24,1h0c.56-.22.46-.91.39-1.51H18l-1.21,1.46A4.91,4.91,0,0,0,17,72c-.16.66-2.14.64-3.09.46h.15c.21-.2-.59-.46-1-.27.07-.12.14-.08.28-.07-.58-.55-.93.9-1.52.25.58.14.73-.12.73-.38-.51.2-1.59-.21-1.46.58-.29-.2-.58-.14-.5-.52l-1.25.27c.1-.06.2-.27-.13-.38.65.21,1.39-.4,1.67.14.08-.47-.13-.75.23-1.1a7.43,7.43,0,0,0-3,1.13l-1.06-.54-.09.2-.1-.57c-.15.1-.27.18-.29.13s0-.12.11-.18a.57.57,0,0,0-.31.07.51.51,0,0,0,0,.21c-.11-.09-.1-.16,0-.21A1.48,1.48,0,0,1,7,70.41l-.07-.11c-.6.24-1.3.54-.89,1l.39.29A1.35,1.35,0,0,1,6,71.29l-.58-.45-.25.1A19,19,0,0,1,0,77.46C9.35,85,20.46,116.27,21.94,120.53l-.28-29.84a3.57,3.57,0,1,1,1.75,0l.28,29.84C25.1,116.23,35.62,84.75,44.83,77c0,0-4-2.7-6.69-9.45M24.09,73c-.65-.17-.06.44-.77.31-.23-.49,0-.4.39-.62a.8.8,0,0,1,.2-.14,1.21,1.21,0,0,1-.2.14c-.15.17.52.12.38.31"/><path class="cls-3" d="M7.91,71.2A.81.81,0,0,0,7.43,71c.17.17.34.26.48.16"/><path class="cls-4" d="M38.14,67.59c-.29.34-.8.74-.71,1-.63-.28.63-.5-.08-.64-.25.14-.28.36-.36.5.07-.29-.4-.21-.53-.29-.86.38-1.45.39-2.39.72,0,0,.07,0,0,0h0l0,0-.26.1h0l-.29.11c-.2.4-.31.88-.13,1-.55.21-.65,0-1.08.28.91.22-.18,0-.11.48-.47.21-.24-.18-.5-.23-.06.07-.21.29-.18.43a.61.61,0,0,0,.33.1c-.23,0-.32,0-.33-.1-.36-.25.12-.93-.06-1.32l-.73.2.05.18-.14,0,0-.2-.71.19a4.08,4.08,0,0,0,.76,1.66c0,.3-.56-.2-.78-.18-.75-.33-.89.6-1.47.53.12-.11.23-.24.35-.36-.11-.09-.86.21-1,.4,0-.16.24-.93,0-1.09-.95.08-1.7,1.17-1.57,1.65.47-.24.93-.52,1.39-.77.13.41-1,.6-.84,1.1-.47,0-.94,0-1.4,0,.17,0,.69-.23.44-.43-.58.1-.31,0-.73-.18a10.1,10.1,0,0,0,1.08-1.39l.15-.25-1.13.16c-.31.58-.53,1.19-.64,1.44-.54,0-.44-1-.34-1.16-1,0-.89,1.36-1.95,1.32l.41.17a1.67,1.67,0,0,1-.5.05l.1,10.82.32,0a3.55,3.55,0,0,1,.94,7l.28,29.84C25.1,116.23,35.62,84.75,44.83,77c0,0-4-2.71-6.69-9.45M23.32,73.31c-.23-.49,0-.4.39-.62-.15.17.52.12.38.31-.65-.17-.06.44-.77.31"/><path class="cls-5" d="M22,62.5h0c.09-.1.05-.16,0-.21Z"/><path class="cls-5" d="M40.22,40.7l0-1.91-4.09,0,0-4.71h.62v-.54l-4.08,0-2.85-8,0-4.34H28.18L21.36,0l.35,36.66a1.41,1.41,0,0,1,1.41,1.4V39l-1.4,0L22,62.13c.85-.09.92.92,1.89.16-.52-.1.14-.78-.89-.43.41-.37,1.14.19,1.51-.38l-.17.56c.19-.06.34-.3.41-.39l.09.35c.4-.83,1.28-.16,1.34-1.07,0,.7.45-.21.78-.1-.31.67-1.47.57-1.31,1.16.3.08.41-.28.71-.2.12-.14.2-.19.05,0h-.05a1.37,1.37,0,0,0-.33.52c.94,0,1.12-.83,1.53-1.18l-.78.49c-.16-.58.33-.26.39-.8.54.11.67-.45,1.09-.42-.09,0-.07.09-.16.13.9-.4,1.55.33,1.93.17s.9-.73.54-.83c.21-.29-1.1.75-.94-.2.75.45.87-.38,1.63-.73v-1a.73.73,0,0,1,.72-.73.71.71,0,0,1,.73.71v.86l.21.11c.33-.94-.13-.57.65-1.47-.2.39.62.09.48.42a1.26,1.26,0,0,0,.59-.68v.06c.86-.8,1-.25,1.66-1.16L36.05,56A11.87,11.87,0,0,1,37.9,54v-.76h.79a6.8,6.8,0,0,0,.5-.59l-.45.24c.17,0,.48-.84.95-1,0,.07-.09.23-.16.28a.6.6,0,0,0,.73,0l-.13-.3.19,0v-.28c-.08,0-.13-.09,0-.23v-.06H38.75l-.1-10.64ZM26.29,60l-2.06,0v-.4h.3V58a.71.71,0,0,1,.71-.73A.72.72,0,0,1,26,58l0,1.68h.31Zm2.12-8.56-5.46,0-.06-5.93a2.74,2.74,0,0,1,5.47,0Zm.93-12.57-2.81,0V38a1.41,1.41,0,1,1,2.81,0Zm3.39-.9a1.41,1.41,0,0,1,2.81,0v.88l-2.82,0Zm3.37,13.4-5.46,0-.06-5.93a2.73,2.73,0,0,1,5.46,0Z"/><path class="cls-3" d="M70.75,44.27a2.24,2.24,0,0,0-.68-.7c-.32-.22-.57-.4-.76-.51a5.32,5.32,0,0,0-.92-.41c-.42-.15-.71-.25-.88-.29l-.89-.25L66.11,42l-.52-.14-.47-.15a2.56,2.56,0,0,1-.46-.16l-.37-.17a2,2,0,0,1-.33-.23c-.08-.08-.15-.17-.23-.26a1,1,0,0,1-.16-.31,1.16,1.16,0,0,1-.06-.38,1.51,1.51,0,0,1,.6-1.19,2.38,2.38,0,0,1,1.59-.5,2.29,2.29,0,0,1,2.36,1.73l2.79-.81A5,5,0,0,0,69,36.7a6.26,6.26,0,0,0-7.08.31,3.93,3.93,0,0,0-1.52,3.16,3.83,3.83,0,0,0,.28,1.51,3.56,3.56,0,0,0,.69,1.11,4.7,4.7,0,0,0,1.08.78,9.86,9.86,0,0,0,1.2.54c.36.12.79.25,1.29.37l.68.17.69.18a5.5,5.5,0,0,1,.57.18,3.21,3.21,0,0,1,.54.22c.11.07.23.17.38.29a1,1,0,0,1,.29.38,1.45,1.45,0,0,1-.55,1.67,2.73,2.73,0,0,1-1.64.46,3.07,3.07,0,0,1-1.72-.49,2.49,2.49,0,0,1-1-1.35l-3,.84a5,5,0,0,0,2,2.78,6.38,6.38,0,0,0,3.62,1,6.08,6.08,0,0,0,3.9-1.25,4,4,0,0,0,1.58-3.27,3.54,3.54,0,0,0-.18-1.14,4.37,4.37,0,0,0-.4-.89"/><polygon class="cls-3" points="84.65 36 72.12 36 72.12 38.69 76.85 38.69 76.85 50.59 79.92 50.59 79.92 38.69 84.65 38.69 84.65 36"/><polygon class="cls-3" points="110.13 45.67 103.78 36 100.34 36 100.34 50.59 103.4 50.59 103.4 40.94 109.74 50.59 113.2 50.59 113.2 36 110.13 36 110.13 45.67"/><path class="cls-3" d="M125,43.09a3.36,3.36,0,0,0,1.5-2.92,3.76,3.76,0,0,0-1.34-3.05A5.35,5.35,0,0,0,121.57,36h-5.85V50.59h6.21a5.46,5.46,0,0,0,3.54-1.12,3.77,3.77,0,0,0,1.38-3.07,3.53,3.53,0,0,0-1.9-3.31m-6.21-4.46h2.83a2.19,2.19,0,0,1,1.36.4,1.56,1.56,0,0,1,.54,1.33,1.54,1.54,0,0,1-.54,1.32,2.2,2.2,0,0,1-1.36.41h-2.83Zm4.5,8.91a2.31,2.31,0,0,1-1.39.42h-3.11V44.44h3.11a2.25,2.25,0,0,1,1.39.43,1.52,1.52,0,0,1,.58,1.32,1.57,1.57,0,0,1-.58,1.35"/><path class="cls-3" d="M137.91,44.09a4.24,4.24,0,0,1-.85,2.71,3.18,3.18,0,0,1-4.78,0,4.24,4.24,0,0,1-.85-2.71V36h-3.06v8.69a5.75,5.75,0,0,0,1.82,4.43,6.83,6.83,0,0,0,9,0A5.75,5.75,0,0,0,141,44.69V36h-3.07Z"/><polygon class="cls-3" points="146.31 47.76 146.31 36 143.25 36 143.25 50.59 153.48 50.59 153.48 47.76 146.31 47.76"/><polygon class="cls-3" points="89.73 36 83.85 50.59 87.23 50.59 88.14 48.19 89.13 45.4 91.34 39.52 91.38 39.52 93.61 45.4 94.58 48.19 95.52 50.59 98.9 50.59 92.96 36 89.73 36"/><polygon class="cls-3" points="57.82 38.67 56.14 38.67 56.14 36 55.45 36 55.45 50.59 58.51 50.59 58.51 36 57.82 36 57.82 38.67"/><path class="cls-6" d="M69.06,75.18h4.63v1.69C72.56,79,70.54,80,67.61,80a6.84,6.84,0,0,1-5.17-2.11,7.38,7.38,0,0,1-2-5.32,7.14,7.14,0,0,1,2-5.13,6.67,6.67,0,0,1,5.06-2.1,6.51,6.51,0,0,1,5.88,3.25l4.56-2.44q-3.27-5.73-10.4-5.74A11.55,11.55,0,0,0,58.94,64a12.42,12.42,0,0,0,0,17.23,11.54,11.54,0,0,0,8.6,3.54,12.58,12.58,0,0,0,7.13-2A9.93,9.93,0,0,0,78.72,77V71.5H69.06Z"/><polygon class="cls-6" points="89.22 60.79 79.7 84.43 85.17 84.43 86.66 80.55 88.24 76.02 91.82 66.5 91.89 66.5 95.51 76.02 97.09 80.55 98.61 84.43 104.09 84.43 94.46 60.79 89.22 60.79"/><polygon class="cls-6" points="135.32 60.79 125.79 84.43 131.27 84.43 132.75 80.55 134.34 76.02 137.92 66.5 137.99 66.5 141.6 76.02 143.19 80.55 144.71 84.43 150.18 84.43 140.55 60.79 135.32 60.79"/><polygon class="cls-6" points="171.81 60.79 162.28 84.43 167.75 84.43 169.24 80.55 170.83 76.02 174.41 66.5 174.47 66.5 178.09 76.02 179.68 80.55 181.2 84.43 186.67 84.43 177.04 60.79 171.81 60.79"/><polygon class="cls-6" points="112.7 60.79 107.74 60.79 107.74 84.43 122.04 84.43 123.89 79.84 112.7 79.84 112.7 60.79"/><polygon class="cls-6" points="166.2 60.79 146.19 60.79 147.97 65.14 153.72 65.14 153.72 84.43 158.69 84.43 158.69 65.14 164.45 65.14 166.2 60.79"/><polygon class="cls-6" points="234.89 76.46 224.63 60.86 219.08 60.86 219.08 84.4 224.03 84.4 224.03 68.83 234.25 84.4 239.84 84.4 239.84 60.86 234.89 60.86 234.89 76.46"/><polygon class="cls-6" points="262.71 78.45 256.49 60.86 251.14 60.86 259.75 84.4 265.64 84.4 274.25 60.86 268.9 60.86 262.71 78.45"/><polygon class="cls-6" points="276.57 84.4 293.19 84.4 293.19 80 281.51 80 281.51 74.72 292.95 74.72 292.95 70.44 281.51 70.44 281.51 65.26 293.19 65.26 293.19 60.86 276.57 60.86 276.57 84.4"/><path class="cls-6" d="M313.47,72.71a7.39,7.39,0,0,0,1.18-4.19,7.1,7.1,0,0,0-2.34-5.6,8.2,8.2,0,0,0-5.63-2.06H296.45V84.4h4.88V76.16h4.41l4,8.24h5.42l-4.85-9a7.54,7.54,0,0,0,3.13-2.68M308.73,71a3.62,3.62,0,0,1-2.56.92h-4.84V65.19h4.84a3.55,3.55,0,0,1,2.56,1,3.25,3.25,0,0,1,1,2.45,3.17,3.17,0,0,1-1,2.41"/><path class="cls-6" d="M333.43,74.19a3.86,3.86,0,0,0-1.1-1.12c-.51-.36-.92-.64-1.23-.83a9,9,0,0,0-1.48-.65c-.67-.25-1.15-.41-1.42-.48s-.75-.2-1.44-.4l-.83-.22-.84-.23-.75-.24a6.08,6.08,0,0,1-.74-.25,6.21,6.21,0,0,1-.59-.29,1.87,1.87,0,0,1-.54-.37,4,4,0,0,1-.37-.42,1.62,1.62,0,0,1-.27-.5,1.92,1.92,0,0,1-.08-.61,2.4,2.4,0,0,1,.95-1.91,3.87,3.87,0,0,1,2.58-.81,3.68,3.68,0,0,1,3.8,2.79l4.51-1.31a8.17,8.17,0,0,0-3-4.36,9.07,9.07,0,0,0-5.38-1.53,9.18,9.18,0,0,0-6.06,2,6.6,6.6,0,0,0-2,7.53,5.39,5.39,0,0,0,1.13,1.78A7,7,0,0,0,320,73.07a13.05,13.05,0,0,0,1.94.87c.58.2,1.27.4,2.08.61.2,0,.57.13,1.09.27l1.11.28c.22.06.53.15.93.29a4.29,4.29,0,0,1,.87.37,5.49,5.49,0,0,1,.61.45,1.68,1.68,0,0,1,.47.62,2.13,2.13,0,0,1,.14.78,2.26,2.26,0,0,1-1,1.91,4.32,4.32,0,0,1-2.65.75,5,5,0,0,1-2.78-.79,4,4,0,0,1-1.63-2.17l-4.78,1.34a8.1,8.1,0,0,0,3.32,4.49,10.21,10.21,0,0,0,5.83,1.63,9.78,9.78,0,0,0,6.31-2,6.39,6.39,0,0,0,2.54-5.28,5.75,5.75,0,0,0-.29-1.83,7.31,7.31,0,0,0-.64-1.45"/><polygon class="cls-6" points="344.52 65.19 352.15 65.19 352.15 84.4 357.1 84.4 357.1 65.19 364.74 65.19 364.74 60.86 344.52 60.86 344.52 65.19"/><polygon class="cls-6" points="367.25 84.4 383.87 84.4 383.87 80 372.2 80 372.2 74.72 383.63 74.72 383.63 70.44 372.2 70.44 372.2 65.26 383.87 65.26 383.87 60.86 367.25 60.86 367.25 84.4"/><path class="cls-6" d="M402.93,74.19a4,4,0,0,0-1.11-1.12c-.51-.36-.92-.64-1.23-.83a8.59,8.59,0,0,0-1.48-.65q-1-.37-1.41-.48c-.27-.06-.76-.2-1.45-.4l-.83-.22-.83-.23-.76-.24a6.76,6.76,0,0,1-.74-.25,6.21,6.21,0,0,1-.59-.29,2,2,0,0,1-.54-.37,4,4,0,0,1-.37-.42,1.62,1.62,0,0,1-.27-.5,2.25,2.25,0,0,1-.08-.61,2.41,2.41,0,0,1,1-1.91,3.84,3.84,0,0,1,2.57-.81,3.67,3.67,0,0,1,3.8,2.79l4.51-1.31a8.12,8.12,0,0,0-3-4.36,9.07,9.07,0,0,0-5.38-1.53,9.18,9.18,0,0,0-6.06,2,6.6,6.6,0,0,0-2,7.53,5.56,5.56,0,0,0,1.13,1.78,7.25,7.25,0,0,0,1.73,1.27,13.05,13.05,0,0,0,1.94.87c.58.2,1.27.4,2.08.61l1.1.27,1.11.28c.21.06.52.15.92.29a4,4,0,0,1,.87.37,5.49,5.49,0,0,1,.61.45,1.68,1.68,0,0,1,.47.62,2.13,2.13,0,0,1,.14.78,2.27,2.27,0,0,1-1,1.91,4.37,4.37,0,0,1-2.66.75,5,5,0,0,1-2.78-.79,4,4,0,0,1-1.63-2.17l-4.78,1.34a8.1,8.1,0,0,0,3.32,4.49A10.22,10.22,0,0,0,395,84.77a9.77,9.77,0,0,0,6.3-2,6.39,6.39,0,0,0,2.54-5.28,5.75,5.75,0,0,0-.28-1.83,8.69,8.69,0,0,0-.64-1.45"/><polygon class="cls-6" points="247.74 65.16 245.03 65.16 245.03 60.86 243.91 60.86 243.91 84.4 248.85 84.4 248.85 60.86 247.74 60.86 247.74 65.16"/><path class="cls-6" d="M214.35,65.16h-2.71v-4.3h-1.17v13a6.89,6.89,0,0,1-1.37,4.37,5.12,5.12,0,0,1-7.71,0A6.84,6.84,0,0,1,200,73.91v-13h-1.1v4.3H196.2v-4.3h-1.13v14A9.25,9.25,0,0,0,198,82a11,11,0,0,0,14.48,0,9.28,9.28,0,0,0,2.93-7.15v-14h-1.07Z"/><polygon class="cls-6" points="340.91 65.16 338.2 65.16 338.2 60.86 337.08 60.86 337.08 84.4 342.03 84.4 342.03 60.86 340.91 60.86 340.91 65.16"/><polygon class="cls-6" points="410.4 60.86 410.4 65.16 407.69 65.16 407.69 60.86 406.57 60.86 406.57 84.4 411.52 84.4 411.52 60.86 410.4 60.86"/></g></g></svg>